:FULLY-SPECIFIED
:FORCE-ALL-JOINTS-BE-3DOF
:DEGREES
340
root 8.15252 16.0765 -20.2944 11.1812 24.5623 4.65549
lfemur -11.0974 19.3132 -11.0121
ltibia 41.6153 -0 0
lfoot 3.34108 26.0952 -0.615349
ltoes -34.644 0 0
rfemur -46.3888 -12.2208 5.61629
rtibia 55.0967 -0 0
rfoot 3.2432 -20.9442 -0.411678
rtoes 11.1831 -0 0
lowerback -0.701947 -1.86585 -1.80365
upperback 1.77394 -2.44731 0.00772246
thorax 2.28725 -1.26344 0.94131
lowerneck -5.2592 -8.8843 -0.532691
upperneck -2.56585 -11.8023 6.37328
head 0.523183 -5.86002 1.80584
lclavicle -3.23025e-14 1.19271e-14 0
lhumerus -47.9197 -35.4695 110.009
lradius 58.0181 -0 0
lwrist 19.1167 0 0
lhand 6.12243 12.6266 0.0573773
lfingers 7.12502 -0 0
lthumb 31.4357 39.9017 0.0432428
rclavicle -3.23025e-14 1.19271e-14 0
rhumerus -20.7482 19.5014 -70.9462
rradius 85.1268 -0 0
rwrist 4.13994 0 0
rhand 18.5909 -7.50936 1.34704
rfingers 7.12502 -0 0
rthumb 43.1509 -30.5231 1.54547
341
root 8.08683 16.1046 -20.1188 10.9315 22.8797 4.11472
lfemur -11.2695 19.1492 -10.46
ltibia 42.8805 -0 0
lfoot 3.78534 25.3052 -0.770471
ltoes -33.9766 0 0
rfemur -45.5793 -12.1024 6.31785
rtibia 54.5757 -0 0
rfoot 2.32279 -20.4589 -0.579172
rtoes 11.5678 -0 0
lowerback -0.753392 -1.76572 -1.62222
upperback 1.73086 -2.31844 0.159751
thorax 2.26671 -1.20045 0.99389
lowerneck -5.37406 -8.63358 -0.523888
upperneck -2.3391 -11.4808 6.19129
head 0.593325 -5.69432 1.75088
lclavicle -3.23025e-14 1.19271e-14 0
lhumerus -47.7032 -34.6287 109.706
lradius 57.9704 -0 0
lwrist 18.977 0 0
lhand 5.42642 12.485 0.0777583
lfingers 7.12502 -0 0
lthumb 30.771 39.8731 0.0586671
rclavicle -3.23025e-14 1.19271e-14 0
rhumerus -22.0045 18.8782 -72.2902
rradius 84.9396 -0 0
rwrist 4.48671 0 0
rhand 16.5489 -8.65084 1.90139
rfingers 7.12502 -0 0
rthumb 41.2097 -31.87 2.19114
342
root 8.02532 16.1304 -19.964 10.6708 21.1055 3.55501
lfemur -11.4796 18.9779 -9.87125
ltibia 44.2993 -0 0
lfoot 4.18836 24.2736 -0.896263
ltoes -32.9001 0 0
rfemur -44.7326 -12.0243 7.17493
rtibia 54.0218 -0 0
rfoot 1.31287 -19.8062 -0.749366
rtoes 11.8922 -0 0
lowerback -0.77058 -1.65525 -1.43827
upperback 1.69469 -2.17643 0.312258
thorax 2.23376 -1.13051 1.0464
lowerneck -5.49918 -8.3646 -0.509708
upperneck -2.10199 -11.1353 6.00634
head 0.667641 -5.51656 1.69439
lclavicle -3.23025e-14 1.19271e-14 0
lhumerus -47.4758 -33.758 109.368
lradius 57.9211 -0 0
lwrist 18.8207 0 0
lhand 4.68998 12.3182 0.0972539
lfingers 7.12502 -0 0
lthumb 30.0675 39.824 0.0737057
rclavicle -3.23025e-14 1.19271e-14 0
rhumerus -23.318 18.1892 -73.7006
rradius 84.6813 -0 0
rwrist 4.7825 0 0
rhand 14.2003 -9.97139 2.46357
rfingers 7.12502 -0 0
rthumb 38.9719 -33.4417 2.84979
343
root 7.96714 16.1541 -19.8268 10.4052 19.2598 2.98459
lfemur -11.7239 18.802 -9.25298
ltibia 45.8509 -0 0
lfoot 4.54881 23.0226 -0.991512
ltoes -31.4456 0 0
rfemur -43.8587 -11.9894 8.17106
rtibia 53.4418 -0 0
rfoot 0.226349 -19.0001 -0.914544
rtoes 12.1568 -0 0
lowerback -0.755116 -1.53614 -1.2535
upperback 1.66543 -2.02326 0.463873
thorax 2.18936 -1.05462 1.09836
lowerneck -5.63283 -8.08069 -0.490719
upperneck -1.85739 -10.7699 5.82055
head 0.745216 -5.32892 1.63702
lclavicle -3.23025e-14 1.19271e-14 0
lhumerus -47.2419 -32.8665 109.001
lradius 57.8706 -0 0
lwrist 18.6499 0 0
lhand 3.92179 12.1292 0.115031
lfingers 7.12502 -0 0
lthumb 29.3334 39.756 0.0878192
rclavicle -3.23025e-14 1.19271e-14 0
rhumerus -24.6687 17.4384 -75.1567
rradius 84.3581 -0 0
rwrist 5.02739 0 0
rhand 11.5786 -11.456 3.00598
rfingers 7.12502 -0 0
rthumb 36.4673 -35.2197 3.48894
344
root 7.91144 16.176 -19.704 10.14 17.3629 2.41075
lfemur -11.999 18.6241 -8.61222
ltibia 47.5146 -0 0
lfoot 4.86492 21.5748 -1.05586
ltoes -29.6446 0 0
rfemur -42.9678 -12.0001 9.28973
rtibia 52.8423 -0 0
rfoot -0.92363 -18.055 -1.06724
rtoes 12.3619 -0 0
lowerback -0.708619 -1.41004 -1.06956
upperback 1.64309 -1.86091 0.613233
thorax 2.13449 -0.973726 1.14928
lowerneck -5.7733 -7.78518 -0.467463
upperneck -1.60812 -10.3889 5.63597
head 0.825143 -5.13363 1.57938
lclavicle -3.23025e-14 1.19271e-14 0
lhumerus -47.0054 -31.9632 108.61
lradius 57.8196 -0 0
lwrist 18.4669 0 0
lhand 3.13051 11.9207 0.130348
lfingers 7.12502 -0 0
lthumb 28.5772 39.6704 0.100493
rclavicle -3.23025e-14 1.19271e-14 0
rhumerus -26.038 16.6314 -76.6386
rradius 83.976 -0 0
rwrist 5.22148 0 0
rhand 8.71838 -13.0872 3.50204
rfingers 7.12502 -0 0
rthumb 33.7278 -37.1826 4.07703
345
root 7.85736 16.1964 -19.5923 9.87912 15.4351 1.83992
lfemur -12.3009 18.4467 -7.95602
ltibia 49.2696 -0 0
lfoot 5.13459 19.9523 -1.08974
ltoes -27.5283 0 0
rfemur -42.0702 -12.0581 10.5145
rtibia 52.2299 -0 0
rfoot -2.12362 -16.9856 -1.20051
rtoes 12.5077 -0 0
lowerback -0.63273 -1.27862 -0.888139
upperback 1.62766 -1.69136 0.758982
thorax 2.07009 -0.888823 1.19865
lowerneck -5.91889 -7.4814 -0.440451
upperneck -1.35693 -9.9967 5.45455
head 0.906524 -4.93288 1.52208
lclavicle -3.23025e-14 1.19271e-14 0
lhumerus -46.7697 -31.0572 108.201
lradius 57.7686 -0 0
lwrist 18.2741 0 0
lhand 2.32482 11.6955 0.142574
lfingers 7.12502 -0 0
lthumb 27.807 39.569 0.111254
rclavicle -3.23025e-14 1.19271e-14 0
rhumerus -27.4083 15.7754 -78.1275
rradius 83.5411 -0 0
rwrist 5.36485 0 0
rhand 5.65592 -14.8448 3.92723
rfingers 7.12502 -0 0
rthumb 30.7876 -39.3061 4.58473
346
root 7.80404 16.2155 -19.4887 9.62564 13.4971 1.27781
lfemur -12.6259 18.2721 -7.29145
ltibia 51.0952 -0 0
lfoot 5.35545 18.1773 -1.09436
ltoes -25.128 0 0
rfemur -41.1768 -12.1641 11.8287
rtibia 51.6113 -0 0
rfoot -3.35985 -15.8068 -1.30818
rtoes 12.5947 -0 0
lowerback -0.529104 -1.14351 -0.710887
upperback 1.61909 -1.51659 0.899765
thorax 1.99712 -0.800887 1.24601
lowerneck -6.06792 -7.17271 -0.410161
upperneck -1.10651 -9.59757 5.27818
head 0.988473 -4.72891 1.46573
lclavicle -3.23025e-14 1.19271e-14 0
lhumerus -46.538 -30.1577 107.779
lradius 57.718 -0 0
lwrist 18.0736 0 0
lhand 1.51341 11.4566 0.15121
lfingers 7.12502 -0 0
lthumb 27.0312 39.4531 0.119685
rclavicle -3.23025e-14 1.19271e-14 0
rhumerus -28.7631 14.879 -79.6058
rradius 83.0594 -0 0
rwrist 5.4576 0 0
rhand 2.4294 -16.7055 4.2601
rfingers 7.12502 -0 0
rthumb 27.6838 -41.5624 4.98614
347
root 7.75065 16.2337 -19.3897 9.38168 11.5694 0.729547
lfemur -12.97 18.1027 -6.6256
ltibia 52.9706 -0 0
lfoot 5.52497 16.272 -1.07162
ltoes -22.475 0 0
rfemur -40.2985 -12.3181 13.2162
rtibia 50.9932 -0 0
rfoot -4.61819 -14.534 -1.38502
rtoes 12.6231 -0 0
lowerback -0.399417 -1.00635 -0.539483
upperback 1.61734 -1.33858 1.03423
thorax 1.91652 -0.710902 1.29086
lowerneck -6.21869 -6.86243 -0.377034
upperneck -0.859462 -9.1959 5.10864
head 1.07011 -4.52392 1.4109
lclavicle -3.23025e-14 1.19271e-14 0
lhumerus -46.3126 -29.274 107.349
lradius 57.6684 -0 0
lwrist 17.8678 0 0
lhand 0.704971 11.2067 0.155905
lfingers 7.12502 -0 0
lthumb 26.2581 39.3244 0.125437
rclavicle -3.23025e-14 1.19271e-14 0
rhumerus -30.0875 13.9526 -81.0574
rradius 82.537 -0 0
rwrist 5.49981 0 0
rhand -0.921257 -18.6436 4.48326
rfingers 7.12502 -0 0
rthumb 24.4555 -43.9204 5.25999
